HIERARCHY
ROOT Hips
{
	OFFSET 0.00000 0.00000 0.00000
	CHANNELS 6 Xposition Yposition Zposition Yrotation Zrotation Xrotation 
	JOINT Lumbar
	{
		OFFSET 0 0 0
		CHANNELS 3 Zrotation Xrotation Yrotation
		JOINT Neck
		{
			OFFSET 0.00 0.2701 0.00
			CHANNELS 3 Zrotation Xrotation Yrotation
			End Site
			{
				OFFSET 0.00 0.1379 0.00
			}
		}
		JOINT RightShoulder
		{
			OFFSET 0.0119 0.2289 0.1181
			CHANNELS 3 Zrotation Xrotation Yrotation
			JOINT RightElbow
			{
				OFFSET 0.00 -0.1475 0.00
				CHANNELS 2 Zrotation Yrotation
				JOINT RightWrist
				{
					OFFSET 0.00 -0.1605 0.00
					CHANNELS 2 Zrotation Xrotation
					End Site
					{
						OFFSET 0.0040 -0.1068 0.0006
					}
				}
			}
		}
		JOINT LeftShoulder
		{
			OFFSET 0.0119 0.2289 -0.1181
			CHANNELS 3 Zrotation Xrotation Yrotation
			JOINT LeftElbow
			{
				OFFSET 0.00 -0.1475 0.00
				CHANNELS 2 Zrotation Yrotation
				JOINT LeftWrist
				{
					OFFSET 0.00 -0.1605 0.00
					CHANNELS 2 Zrotation Xrotation
					End Site
					{
						OFFSET 0.0040 -0.1068 -0.0006
					}
				}
			}
		}
	}
	JOINT RightHip
	{
		OFFSET 0.0316 -0.0424 0.0458
		CHANNELS 3 Zrotation Xrotation Yrotation
		JOINT RightKnee
		{
			OFFSET 0.00 -0.2438 0.00
			CHANNELS 1 Zrotation
			JOINT RightAnkle
			{
				OFFSET 0.00 -0.2449 0.00
				CHANNELS 3 Zrotation Xrotation Yrotation
				End Site
				{
					OFFSET 0.1237 -0.0542 0.0051
				}
			}
		}
	}
	JOINT LeftHip
	{
		OFFSET 0.0316 -0.0424 -0.0458
		CHANNELS 3 Zrotation Xrotation Yrotation
		JOINT LeftKnee
		{
			OFFSET 0.00 -0.2438 0.00
			CHANNELS 1 Zrotation
			JOINT LeftAnkle
			{
				OFFSET 0.00 -0.2449 0.00
				CHANNELS 3 Zrotation Xrotation Yrotation
				End Site
				{
					OFFSET 0.1237 -0.0542 -0.0051
				}
			}
		}
	}
}
MOTION
Frames: 11
Frame Time: 0.02
0.00066 -2e-05 -0.00022 -178.61186 -27.50206 1.25981 42.06444 -0.86287 -6.55872 -12.11961 6.50369 -0.43454 -16.49628 -4.04454 -14.39284 20.28001 120.74672 12.90958 5.37351 -22.835 8.49356 -3.95023 32.78488 -108.5256 16.37673 -1.5321 28.55543 -3.21034 -6.13725 -20.75514 -7.19219 -5.20365 -3.42344 33.82101 3.40134 -4.9301 -24.7675 -6.955 4.36056 2.96609
0.00076 -2e-05 -6e-05 -178.7162 -27.47968 1.25118 42.06597 -0.86338 -6.54603 -12.18922 6.52406 -0.43506 -16.52638 -4.05025 -14.35784 20.2978 120.72288 12.91065 5.3811 -22.88171 8.4895 -3.91321 32.80595 -108.48846 16.37472 -1.53837 28.53692 -3.2311 -6.12075 -20.75086 -7.17697 -5.19109 -3.41701 33.79252 3.46195 -4.60111 -24.77856 -6.93956 4.33592 2.94964
0.00085 -2e-05 9e-05 -178.82057 -27.45743 1.24253 42.06754 -0.86382 -6.5334 -12.25867 6.54445 -0.43558 -16.55633 -4.056 -14.32291 20.31549 120.6991 12.91166 5.38867 -22.92864 8.4855 -3.87625 32.82743 -108.4515 16.37274 -1.54462 28.51856 -3.25182 -6.10404 -20.74657 -7.16178 -5.17856 -3.41059 33.76417 3.52246 -4.27268 -24.78965 -6.92416 4.31134 2.93324
0.00094 -2e-05 0.00025 -178.92463 -27.43513 1.23393 42.06907 -0.86432 -6.52075 -12.32807 6.56477 -0.4361 -16.58633 -4.06171 -14.288 20.33322 120.67523 12.9127 5.39622 -22.97525 8.48146 -3.83933 32.8485 -108.41449 16.37074 -1.55087 28.50013 -3.27251 -6.08754 -20.74229 -7.1466 -5.16604 -3.40417 33.73578 3.5829 -3.94464 -24.80068 -6.90876 4.28678 2.91685
0.00104 -1e-05 0.0004 -179.02858 -27.41268 1.22536 42.07054 -0.86491 -6.50804 -12.39761 6.58505 -0.43662 -16.6165 -4.06734 -14.25308 20.35108 120.65161 12.91389 5.40385 -23.02155 8.47735 -3.80237 32.869 -108.37726 16.36871 -1.55715 28.48151 -3.29324 -6.07138 -20.73802 -7.1314 -5.1535 -3.39775 33.70723 3.64343 -3.6162 -24.81166 -6.89334 4.26216 2.90042
0.00113 -1e-05 0.00056 -179.13383 -27.39085 1.21653 42.07229 -0.86505 -6.49559 -12.46687 6.60568 -0.43714 -16.64596 -4.07335 -14.21816 20.3684 120.62765 12.91454 5.41131 -23.06982 8.47358 -3.76543 32.89254 -108.34087 16.36685 -1.56333 28.4637 -3.31395 -6.05354 -20.73372 -7.11625 -5.14098 -3.39133 33.67927 3.70387 -3.28781 -24.82299 -6.87798 4.23766 2.88408
0.00123 -1e-05 0.00071 -179.23627 -27.3678 1.20826 42.0735 -0.86609 -6.4826 -12.53661 6.62556 -0.43767 -16.67683 -4.0786 -14.18316 20.38679 120.60361 12.91611 5.41897 -23.11399 8.4691 -3.72847 32.90988 -108.30286 16.36462 -1.56971 28.44429 -3.33464 -6.03902 -20.72947 -7.10101 -5.12844 -3.38491 33.6502 3.76442 -2.9597 -24.83361 -6.86252 4.21295 2.86758
0.00132 -1e-05 0.00087 -179.34145 -27.34587 1.19944 42.07518 -0.8663 -6.47016 -12.60592 6.64618 -0.43819 -16.70637 -4.08453 -14.14844 20.40416 120.58108 12.91713 5.42669 -23.16209 8.46534 -3.69158 32.93306 -108.2663 16.36275 -1.5759 28.42635 -3.35541 -6.0216 -20.72518 -7.08583 -5.1159 -3.37848 33.6221 3.82485 -2.63132 -24.84487 -6.84715 4.18845 2.85124
0.00141 -1e-05 0.00103 -179.4495 -27.32534 1.19005 42.07757 -0.8655 -6.45818 -12.67469 6.66752 -0.4387 -16.73442 -4.09142 -14.11322 20.42045 120.55469 12.9163 5.4335 -23.21446 8.4622 -3.65453 32.96297 -108.23166 16.36129 -1.58188 28.41022 -3.37606 -5.99994 -20.7208 -7.07081 -5.10343 -3.37208 33.59539 3.88528 -2.30244 -24.85695 -6.83188 4.16415 2.83503
0.00151 -1e-05 0.00116 -179.53958 -27.29684 1.18424 42.07626 -0.87054 -6.44293 -12.7465 6.68415 -0.43924 -16.77147 -4.09314 -14.07834 20.44344 120.53337 12.92259 5.44263 -23.24066 8.45471 -3.61766 32.95295 -108.18644 16.35738 -1.58913 28.38372 -3.39674 -6.00055 -20.71684 -7.05513 -5.09077 -3.36566 33.56128 3.94615 -1.97588 -24.86442 -6.81599 4.13851 2.81788
0.0016 -1e-05 0.00137 -179.66847 -27.28511 1.17071 42.08251 -0.86322 -6.43498 -12.81196 6.71109 -0.43974 -16.78927 -4.10554 -14.04439 20.45196 120.51231 12.91609 5.44871 -23.32306 8.45689 -3.58089 33.0279 -108.16321 16.35867 -1.59368 28.37904 -3.41776 -5.95556 -20.71203 -7.04071 -5.07836 -3.35917 33.54239 4.00579 -1.64489 -24.88157 -6.80142 4.11582 2.80282
